<?xml version="1.0" encoding="utf-8"?>
<!-- Generator: Adobe Illustrator 28.0.0, SVG Export Plug-In . SVG Version: 6.00 Build 0)  -->
<svg version="1.1" id="Layer_1" xmlns="http://www.w3.org/2000/svg" xmlns:xlink="http://www.w3.org/1999/xlink" x="0px" y="0px"
	 viewBox="0 0 24 24" style="enable-background:new 0 0 24 24;" xml:space="preserve">
<style type="text/css">
	.st0{fill:#FFFFFF;}
</style>
<path class="st0" d="M16.5,13.5v-2.2h-2.2V9.8h2.2V7.5H18v2.2h2.2v1.5H18v2.2H16.5z M9.8,12c-0.8,0-1.5-0.3-2.1-0.9
	C7,10.5,6.8,9.8,6.8,9S7,7.5,7.6,6.9S8.9,6,9.8,6s1.5,0.3,2.1,0.9c0.6,0.6,0.9,1.3,0.9,2.1s-0.3,1.5-0.9,2.1
	C11.3,11.7,10.6,12,9.8,12z M3.8,18v-2.1c0-0.4,0.1-0.8,0.3-1.2c0.2-0.4,0.5-0.6,0.9-0.8c0.8-0.4,1.6-0.7,2.4-0.9s1.6-0.3,2.4-0.3
	s1.6,0.1,2.4,0.3c0.8,0.2,1.6,0.5,2.4,0.9c0.4,0.2,0.7,0.5,0.9,0.8c0.2,0.4,0.3,0.7,0.3,1.2V18H3.8z M5.2,16.5h9v-0.6
	c0-0.1,0-0.3-0.1-0.4s-0.2-0.2-0.3-0.3c-0.7-0.3-1.4-0.6-2-0.8c-0.7-0.2-1.4-0.3-2.1-0.3c-0.7,0-1.4,0.1-2.1,0.3
	c-0.7,0.2-1.4,0.4-2,0.8c-0.1,0.1-0.2,0.1-0.3,0.3c-0.1,0.1-0.1,0.2-0.1,0.4V16.5z M9.8,10.5c0.4,0,0.8-0.1,1.1-0.4s0.4-0.6,0.4-1.1
	c0-0.4-0.1-0.8-0.4-1.1s-0.6-0.4-1.1-0.4C9.3,7.5,9,7.6,8.7,7.9S8.2,8.6,8.2,9c0,0.4,0.1,0.8,0.4,1.1S9.3,10.5,9.8,10.5z"/>
</svg>
